# xmcd
#
# Track frame offsets:
#	150
#	11347
#	24488
#	36188
#	47193
#	65364
#
# Disc length: 1082 seconds
#
# Revision: 1
# Processed by: cddbd v1.5.2PL0 Copyright (c) Steve Scherf et al.
# Submitted via: audiograbber 1.83.01
#
DISCID=43043806
DTITLE=Riders - Wanted
DYEAR=2008
DGENRE=Country
TTITLE0=Sold
TTITLE1=Highball
TTITLE2=Helplessy Hopin
TTITLE3=Lousiana Saturday Night
TTITLE4=Living On Love
TTITLE5=Make My Life With You
EXTD=
EXTT0=
EXTT1=
EXTT2=
EXTT3=
EXTT4=
EXTT5=
PLAYORDER=
